<svg xmlns="http://www.w3.org/2000/svg" viewBox="0 0 420 320" fill="none"><rect width="420" height="320" fill="#2A2F38"/><rect x="24" y="24" width="372" height="272" stroke="#F4EBD9" stroke-opacity=".35" stroke-width="2" stroke-dasharray="6 6"/><path d="M120 90h140c10 0 18 8 18 18v150c0 10-8 18-18 18H120c-10 0-18-8-18-18V108c0-10 8-18 18-18Z" stroke="#F4EBD9" stroke-width="4"/><path d="M155 90v186" stroke="#F4EBD9" stroke-width="3"/><path d="M180 140c40-8 70 4 100-4M180 175c36-6 66 5 96-3M180 210c30-5 58 4 84-2" stroke="#F4EBD9" stroke-width="5" stroke-linecap="round"/><g transform="translate(290 200) rotate(-25)"><rect width="90" height="14" rx="7" fill="#F4EBD9"/></g></svg>
