<svg xmlns="http://www.w3.org/2000/svg" viewBox="0 0 1280 780" fill="none" aria-hidden="true">
  <!-- doodles monocromos: flechas, estrellas, trazos sueltos -->
  <g stroke="#EBE6DC" stroke-linecap="round" fill="none">
    <path d="M180 120c40 20 60 50 70 90" stroke-width="2" opacity=".3"/>
    <path d="M248 202l10-14 12 8" stroke-width="2" opacity=".3"/>
    <path d="M1050 180c-30 40-50 80-55 130" stroke-width="2" opacity=".25"/>
    <path d="M998 302l-12-6 4 14" stroke-width="2" opacity=".25"/>
    <circle cx="620" cy="90" r="3" stroke-width="2" opacity=".2"/>
    <circle cx="640" cy="78" r="2" stroke-width="1.5" opacity=".15"/>
    <path d="M400 700c20-30 50-50 90-55" stroke-width="2" opacity=".2"/>
    <path d="M900 650c-15 25-35 45-65 55" stroke-width="2" opacity=".2"/>
  </g>
  <g stroke="#EBE6DC" stroke-width="1.8" stroke-linejoin="round" fill="none" opacity=".25">
    <path d="m320 680 8 20h22l-18 14 6 20-18-14-18 14 6-20-18-14h22l8-20Z"/>
    <path d="m1080 420 6 16h18l-14 11 5 16-15-11-15 11 5-16-14-11h18l6-16Z"/>
  </g>
  <g fill="#EBE6DC" fill-opacity=".08">
    <circle cx="90" cy="400" r="1.2"/><circle cx="1150" cy="90" r="1"/><circle cx="600" cy="720" r="1.3"/>
    <circle cx="200" cy="600" r="0.9"/><circle cx="1000" cy="550" r="1.1"/>
  </g>
</svg>
