<svg xmlns="http://www.w3.org/2000/svg" viewBox="0 0 720 480" fill="none" aria-hidden="true">
  <rect width="720" height="480" rx="32" fill="#1C1412"/>
  <circle cx="580" cy="90" r="86" fill="#FFD166"/>
  <circle cx="120" cy="380" r="110" fill="#FF5A36"/>
  <circle cx="620" cy="360" r="70" fill="#4C8BF5"/>
  <rect x="150" y="78" width="300" height="320" rx="22" fill="#FFF8F2"/>
  <path d="M222 78v320" stroke="#1C1412" stroke-width="4"/>
  <circle cx="196" cy="150" r="7" fill="#1C1412"/>
  <circle cx="196" cy="200" r="7" fill="#1C1412"/>
  <circle cx="196" cy="250" r="7" fill="#1C1412"/>
  <path d="M250 150h140" stroke="#1C1412" stroke-width="12" stroke-linecap="round"/>
  <path d="M250 196h160" stroke="#1C1412" stroke-width="7" stroke-linecap="round" opacity=".35"/>
  <path d="M250 236h120" stroke="#1C1412" stroke-width="7" stroke-linecap="round" opacity=".28"/>
  <path d="M250 276h148" stroke="#1C1412" stroke-width="7" stroke-linecap="round" opacity=".22"/>
  <rect x="250" y="318" width="92" height="28" rx="14" fill="#FF5A36"/>
  <rect x="480" y="140" width="120" height="120" rx="24" fill="#7BC9A6"/>
  <path d="M510 190h60M510 220h40" stroke="#1C1412" stroke-width="8" stroke-linecap="round"/>
  <g transform="translate(470 280) rotate(-24)">
    <rect width="150" height="26" rx="13" fill="#FFF8F2"/>
    <path d="M150 0 182 13 150 26Z" fill="#FFF8F2"/>
    <rect x="18" y="6" width="40" height="14" rx="7" fill="#4C8BF5"/>
  </g>
</svg>
