<svg class="hero-art" viewBox="0 0 480 400" fill="none" xmlns="http://www.w3.org/2000/svg" aria-hidden="true">
  <rect width="480" height="400" rx="24" fill="#111827" />
  <rect x="40" y="48" width="120" height="120" rx="8" fill="#e07a5f" />
  <circle cx="340" cy="100" r="56" fill="#3d9aad" />
  <rect x="280" y="200" width="140" height="90" rx="6" fill="#9b8afb" transform="rotate(-8 350 245)" />
  <circle cx="120" cy="280" r="44" fill="#d4a017" />
  <path d="M200 320h160" stroke="#fff" stroke-width="3" stroke-linecap="round" opacity="0.2" />
  <path d="M220 340h120" stroke="#fff" stroke-width="3" stroke-linecap="round" opacity="0.15" />
  <!-- iconos estilizados -->
  <g stroke="#fff" stroke-width="2.5" stroke-linecap="round" stroke-linejoin="round">
    <path d="M88 98 76 122l24 8 8-24-20-8Z" opacity="0.9" />
    <path d="M324 78h20M334 68v20" opacity="0.85" />
    <path d="M310 230h60M310 255h40M310 280h50" opacity="0.5" />
    <circle cx="120" cy="280" r="16" opacity="0.7" />
    <path d="M112 280h16M120 272v16" opacity="0.7" />
  </g>
</svg>
