<svg xmlns="http://www.w3.org/2000/svg" viewBox="0 0 640 420" fill="none" aria-hidden="true">
  <rect width="640" height="420" rx="24" fill="#EFEDE7"/>
  <!-- soft natural shapes -->
  <circle cx="520" cy="96" r="64" fill="#D8E0D6"/>
  <circle cx="110" cy="330" r="78" fill="#E4DDD2"/>
  <!-- notebook -->
  <rect x="168" y="70" width="246" height="286" rx="16" fill="#FAFAF8" stroke="#1A1917" stroke-width="2"/>
  <path d="M232 70v286" stroke="#1A1917" stroke-width="2"/>
  <circle cx="208" cy="140" r="4" fill="#1A1917"/>
  <circle cx="208" cy="186" r="4" fill="#1A1917"/>
  <circle cx="208" cy="232" r="4" fill="#1A1917"/>
  <path d="M258 138h110" stroke="#1A1917" stroke-width="7" stroke-linecap="round"/>
  <path d="M258 176h128" stroke="#1A1917" stroke-width="4" stroke-linecap="round" opacity=".35"/>
  <path d="M258 206h96" stroke="#1A1917" stroke-width="4" stroke-linecap="round" opacity=".28"/>
  <path d="M258 236h118" stroke="#1A1917" stroke-width="4" stroke-linecap="round" opacity=".22"/>
  <path d="M258 266h84" stroke="#1A1917" stroke-width="4" stroke-linecap="round" opacity=".18"/>
  <!-- plant / natural mark -->
  <path d="M470 280c20-54 48-78 86-92" stroke="#2C5F4E" stroke-width="3" stroke-linecap="round"/>
  <path d="M500 250c18 4 34 18 42 36" stroke="#2C5F4E" stroke-width="3" stroke-linecap="round"/>
  <circle cx="556" cy="188" r="16" stroke="#2C5F4E" stroke-width="3"/>
  <!-- pen -->
  <g transform="translate(430 300) rotate(-20)">
    <rect width="120" height="14" rx="7" fill="#1A1917"/>
    <path d="M120 0 142 7 120 14Z" fill="#1A1917"/>
  </g>
</svg>
