<svg xmlns="http://www.w3.org/2000/svg" viewBox="0 0 720 520" fill="none" role="img" aria-labelledby="heroTitle">
  <title id="heroTitle">Ilustraciˇn plana de escritorio creativo</title>
  <rect width="720" height="520" fill="#F4F4F2"/>
  <!-- soft paper blocks -->
  <rect x="56" y="64" width="280" height="220" rx="8" fill="#FFFFFF" stroke="#111111" stroke-width="3"/>
  <rect x="88" y="108" width="160" height="10" rx="5" fill="#111111"/>
  <rect x="88" y="136" width="210" height="8" rx="4" fill="#111111" fill-opacity="0.35"/>
  <rect x="88" y="160" width="180" height="8" rx="4" fill="#111111" fill-opacity="0.35"/>
  <rect x="88" y="184" width="196" height="8" rx="4" fill="#111111" fill-opacity="0.22"/>
  <rect x="88" y="220" width="72" height="28" rx="6" fill="#111111"/>
  <!-- circle mark -->
  <circle cx="500" cy="150" r="78" fill="#111111"/>
  <circle cx="500" cy="150" r="42" fill="#F4F4F2"/>
  <!-- stacked flats -->
  <rect x="390" y="260" width="230" height="150" rx="8" fill="#FFFFFF" stroke="#111111" stroke-width="3"/>
  <path d="M420 310h170M420 338h120M420 366h150" stroke="#111111" stroke-width="8" stroke-linecap="round"/>
  <!-- accent bar flat -->
  <rect x="56" y="320" width="240" height="90" rx="8" fill="#111111"/>
  <rect x="84" y="352" width="110" height="10" rx="5" fill="#F4F4F2"/>
  <rect x="84" y="376" width="160" height="8" rx="4" fill="#F4F4F2" fill-opacity="0.55"/>
  <!-- small stamp -->
  <rect x="620" y="64" width="44" height="44" fill="#111111"/>
</svg>
