<svg xmlns="http://www.w3.org/2000/svg" viewBox="0 0 760 500" fill="none" aria-hidden="true">
  <rect width="760" height="500" rx="8" fill="#1E232B"/>
  <!-- chalk dust -->
  <g fill="#F6F0E4" fill-opacity=".08">
    <circle cx="80" cy="70" r="1.4"/><circle cx="120" cy="110" r="1"/><circle cx="200" cy="60" r="1.2"/>
    <circle cx="520" cy="90" r="1.3"/><circle cx="600" cy="140" r="1"/><circle cx="680" cy="80" r="1.5"/>
    <circle cx="140" cy="400" r="1.1"/><circle cx="300" cy="430" r="1.3"/><circle cx="640" cy="390" r="1"/>
  </g>
  <!-- hand-drawn outer frame -->
  <path d="M36 42c8-10 680-18 690 8 8 18 10 380-6 402-14 18-678 20-696-4-12-18-8-380 12-406Z"
        stroke="#F6F0E4" stroke-opacity=".55" stroke-width="3" stroke-linecap="round"/>
  <!-- banner -->
  <path d="M170 78c40-18 120-20 180-4 18 5 22 18 8 28l-28 18c-10 6-14 6-24 0l-28-16c-40-22-100-24-148-4-12 5-18-2-10-14l18-14c10-7 20-5 32 6Z"
        fill="#F6F0E4" fill-opacity=".12" stroke="#F6F0E4" stroke-width="2.5"/>
  <path d="M220 104c30-4 70-4 104 2" stroke="#F6F0E4" stroke-width="4" stroke-linecap="round"/>
  <!-- coffee / atelier doodle -->
  <path d="M560 120c18 0 32 14 32 32v54c0 28-22 50-50 50h-8c-28 0-50-22-50-50v-54c0-18 14-32 32-32h44Z"
        stroke="#F6F0E4" stroke-width="3"/>
  <path d="M574 150h28c12 0 22 10 22 22s-10 22-22 22h-18" stroke="#F6F0E4" stroke-width="3" stroke-linecap="round"/>
  <path d="M530 120c-8-18 4-34 22-34" stroke="#D9E4F0" stroke-width="3" stroke-linecap="round"/>
  <path d="M548 112c-4-12 4-22 14-24" stroke="#D9E4F0" stroke-width="3" stroke-linecap="round"/>
  <!-- leafy flourish -->
  <path d="M96 250c40-60 70-70 110-60" stroke="#C9D7C4" stroke-width="3" stroke-linecap="round"/>
  <path d="M140 220c8 18 8 34-2 50" stroke="#C9D7C4" stroke-width="3" stroke-linecap="round"/>
  <path d="M168 210c10 16 12 32 4 48" stroke="#C9D7C4" stroke-width="3" stroke-linecap="round"/>
  <path d="M118 236c12 10 18 24 14 40" stroke="#C9D7C4" stroke-width="3" stroke-linecap="round"/>
  <!-- open sketchbook on board -->
  <path d="M220 180h210c12 0 22 10 22 22v170c0 12-10 22-22 22H220c-12 0-22-10-22-22V202c0-12 10-22 22-22Z"
        fill="#F6F0E4" fill-opacity=".95"/>
  <path d="M325 180v214" stroke="#1E232B" stroke-width="2.5" stroke-opacity=".35"/>
  <path d="M250 230c40-10 70 4 110-6" stroke="#1E232B" stroke-width="7" stroke-linecap="round"/>
  <path d="M250 268c36-6 72 6 106-4" stroke="#1E232B" stroke-width="4" stroke-linecap="round" opacity=".45"/>
  <path d="M250 300c30-5 64 5 94-3" stroke="#1E232B" stroke-width="4" stroke-linecap="round" opacity=".32"/>
  <path d="M250 332c34-5 58 5 88-2" stroke="#1E232B" stroke-width="4" stroke-linecap="round" opacity=".24"/>
  <!-- stars / chalk marks -->
  <path d="M500 280 508 298l20 2-15 13 4 20-17-10-17 10 4-20-15-13 20-2Z" fill="#F6E2B3" fill-opacity=".85"/>
  <path d="M620 250 625 262l13 1-10 9 3 13-11-7-11 7 3-13-10-9 13-1Z" fill="#F6F0E4" fill-opacity=".7"/>
  <!-- chalk sticks -->
  <rect x="500" y="380" width="110" height="14" rx="7" fill="#F6F0E4"/>
  <rect x="620" y="384" width="40" height="8" rx="4" fill="#D9E4F0"/>
  <rect x="500" y="404" width="78" height="12" rx="6" fill="#E7C4B8"/>
  <!-- handwritten arrow -->
  <path d="M470 210c40 10 70 40 78 78" stroke="#F6F0E4" stroke-width="3" stroke-linecap="round"/>
  <path d="M538 278c8 8 12 12 14 18m0 0c-8-2-14-2-22 0" stroke="#F6F0E4" stroke-width="3" stroke-linecap="round"/>
</svg>
