<svg xmlns="http://www.w3.org/2000/svg" viewBox="0 0 400 280" fill="none" aria-hidden="true">
  <path d="M40 220c60-80 120-40 180-100s140-20 140 60" stroke="currentColor" stroke-width="1.5" stroke-linecap="round" opacity="0.35"/>
  <path d="M60 60c40 20 80 10 120 40s100 30 160-20" stroke="currentColor" stroke-width="1.5" stroke-linecap="round" opacity="0.25"/>
  <circle cx="320" cy="80" r="40" stroke="currentColor" stroke-width="1.5" opacity="0.4"/>
  <path d="M80 180h80M70 200h100M75 220h60" stroke="currentColor" stroke-width="1.2" stroke-linecap="round" opacity="0.2"/>
  <path d="m200 40 8 20h22l-18 14 6 20-18-14-18 14 6-20-18-14h22l8-20z" stroke="currentColor" stroke-width="1.3" stroke-linejoin="round" opacity="0.5"/>
  <path d="M240 200c20-30 50-40 80-30" stroke="currentColor" stroke-width="1.5" stroke-linecap="round" opacity="0.3"/>
</svg>
