<svg xmlns="http://www.w3.org/2000/svg" viewBox="0 0 260 190" fill="none" aria-hidden="true">
  <rect width="260" height="190" rx="10" fill="#1E232B"/>
  <path d="M24 28c4-8 208-12 216 4 6 12 8 120-2 136-8 12-206 14-220-2-10-12-6-120 6-138Z"
        stroke="#F6F0E4" stroke-opacity=".5" stroke-width="2.5"/>
  <path d="M58 72c36-12 70 2 108-8" stroke="#F6F0E4" stroke-width="7" stroke-linecap="round"/>
  <path d="M58 104c40-8 74 6 110-4" stroke="#F6F0E4" stroke-width="4" stroke-linecap="round" opacity=".55"/>
  <path d="M58 130c32-6 66 4 96-3" stroke="#F6F0E4" stroke-width="4" stroke-linecap="round" opacity=".35"/>
  <path d="M190 58c18-22 40-28 58-18" stroke="#C9D7C4" stroke-width="3" stroke-linecap="round"/>
  <path d="M210 70c6 12 6 24-2 36" stroke="#C9D7C4" stroke-width="3" stroke-linecap="round"/>
  <path d="M220 150 226 164l15 2-12 10 3 15-13-8-13 8 3-15-11-10 13-2Z" fill="#F6E2B3"/>
</svg>
