<svg xmlns="http://www.w3.org/2000/svg" viewBox="0 0 64 64" fill="none">
  <rect width="64" height="64" rx="12" fill="#1E232B"/>
  <path d="M12 14c3-6 38-6 42 2 3 6 3 34-2 40-4 5-36 5-42-1-4-5-3-34 2-41Z" stroke="#F6F0E4" stroke-width="2.5"/>
  <path d="M20 28c10-4 18 2 26-2" stroke="#F6F0E4" stroke-width="3.5" stroke-linecap="round"/>
  <path d="M20 38c8-3 16 2 22-1" stroke="#C9D7C4" stroke-width="2.5" stroke-linecap="round"/>
  <path d="M44 44 47 50l7 1-5 5 1 7-6-4-6 4 1-7-5-5 7-1Z" fill="#F6E2B3"/>
</svg>
